<svg xmlns="http://www.w3.org/2000/svg" viewBox="0 0 1280 640">
  <defs>
    <linearGradient id="bg" x1="0" y1="0" x2="1" y2="1">
      <stop offset="0" stop-color="#0f1629" />
      <stop offset="1" stop-color="#060b16" />
    </linearGradient>
    <linearGradient id="main" x1="290" y1="260" x2="510" y2="470" gradientUnits="userSpaceOnUse">
      <stop offset="0" stop-color="#84e9a8" />
      <stop offset="1" stop-color="#18c467" />
    </linearGradient>
    <linearGradient id="arrow" x1="250" y1="400" x2="560" y2="210" gradientUnits="userSpaceOnUse">
      <stop offset="0" stop-color="#62e493" />
      <stop offset="1" stop-color="#85ebb0" />
    </linearGradient>
    <radialGradient id="glow" cx="50%" cy="0%" r="70%">
      <stop offset="0%" stop-color="#ffffff" stop-opacity="0.06" />
      <stop offset="100%" stop-color="#ffffff" stop-opacity="0" />
    </radialGradient>
  </defs>

  <rect width="1280" height="640" fill="url(#bg)" />
  <rect width="1280" height="640" fill="url(#glow)" />

  <g transform="translate(230 208) scale(5.2)">
    <path d="M8 16a4 4 0 0 1 4-4h30c3.7 0 5.5 4.5 2.8 7.1L36 28H25.8v8L8 47.2V16Z" fill="url(#main)" />
    <path d="M8 51.5 20.5 46v16.8L11.6 67a2.4 2.4 0 0 1-3.6-2.1V51.5Z" fill="url(#main)" />
    <path d="M24 44.5 36.5 39v22L24 66.5v-22Z" fill="url(#main)" />
    <path d="M39.5 37.7 52 32v22.5c0 1.2-.7 2.2-1.8 2.7L39.5 62V37.7Z" fill="url(#main)" />
    <path d="M6.8 45.8C20.4 39.8 31.8 31.4 47.8 13.2" stroke="url(#arrow)" stroke-width="4.8" stroke-linecap="round" />
    <path d="m43.5 13.4 11-2.6-2.7 11" stroke="url(#arrow)" stroke-width="4.8" stroke-linecap="round" stroke-linejoin="round" />
  </g>

  <text
    x="560"
    y="360"
    fill="#f4f7ff"
    font-size="120"
    font-family="Inter, ui-sans-serif, system-ui, sans-serif"
    font-weight="700"
    letter-spacing="-2"
  >
    Financelli
  </text>
</svg>

